<?xml version="1.0" encoding="UTF-8" standalone="no"?>
<!-- Created with Inkscape (http://www.inkscape.org/) -->

<svg
   xmlns:dc="http://purl.org/dc/elements/1.1/"
   xmlns:cc="http://creativecommons.org/ns#"
   xmlns:rdf="http://www.w3.org/1999/02/22-rdf-syntax-ns#"
   xmlns:svg="http://www.w3.org/2000/svg"
   xmlns="http://www.w3.org/2000/svg"
   xmlns:sodipodi="http://sodipodi.sourceforge.net/DTD/sodipodi-0.dtd"
   xmlns:inkscape="http://www.inkscape.org/namespaces/inkscape"
   width="5000"
   height="5000"
   viewBox="0 0 5000 4999.9999"
   id="svg2"
   version="1.1"
   inkscape:version="0.92.4 (5da689c313, 2019-01-14)"
   sodipodi:docname="circle-circleci.svg"
   inkscape:export-filename="/home/felicianotech/Projects/cloud-unpacked/graphics/logos/master/master.png"
   inkscape:export-xdpi="11.9"
   inkscape:export-ydpi="11.9">
  <defs
     id="defs4" />
  <sodipodi:namedview
     id="base"
     pagecolor="#000000"
     bordercolor="#666666"
     borderopacity="1.0"
     inkscape:pageopacity="0"
     inkscape:pageshadow="2"
     inkscape:zoom="0.0625"
     inkscape:cx="6689.6583"
     inkscape:cy="-1323.8416"
     inkscape:document-units="px"
     inkscape:current-layer="layer1"
     showgrid="false"
     inkscape:window-width="3732"
     inkscape:window-height="2032"
     inkscape:window-x="108"
     inkscape:window-y="54"
     inkscape:window-maximized="1"
     fit-margin-top="0"
     fit-margin-left="0"
     fit-margin-right="0"
     fit-margin-bottom="0"
     showborder="true"
     units="px"
     inkscape:pagecheckerboard="true" />
  <metadata
     id="metadata7">
    <rdf:RDF>
      <cc:Work
         rdf:about="">
        <dc:format>image/svg+xml</dc:format>
        <dc:type
           rdf:resource="http://purl.org/dc/dcmitype/StillImage" />
        <dc:title />
      </cc:Work>
    </rdf:RDF>
  </metadata>
  <g
     inkscape:label="Layer 1"
     inkscape:groupmode="layer"
     id="layer1"
     transform="translate(2386.9101,-3798.7827)">
    <circle
       style="fill:#1c1c1c;fill-opacity:1"
       id="path864"
       cx="113.0899"
       cy="6298.7827"
       r="2500" />
    <circle
       style="fill:#000000;fill-opacity:1;stroke:none;stroke-width:2;stroke-linecap:square;stroke-linejoin:miter;stroke-miterlimit:4;stroke-dasharray:none;stroke-opacity:1"
       id="path4304-4-6"
       cx="2523.1167"
       cy="-317.93839"
       r="0" />
    <circle
       style="fill:#000000;fill-opacity:1;stroke:none;stroke-width:2;stroke-linecap:square;stroke-linejoin:miter;stroke-miterlimit:4;stroke-dasharray:none;stroke-opacity:1"
       id="path4304-4-2"
       cx="320.25952"
       cy="862.34735"
       r="0" />
    <circle
       style="fill:#000000;fill-opacity:1;stroke:none;stroke-width:2;stroke-linecap:square;stroke-linejoin:miter;stroke-miterlimit:4;stroke-dasharray:none;stroke-opacity:1"
       id="path4304-4-0"
       cx="2523.1167"
       cy="862.34735"
       r="0" />
    <circle
       style="fill:#000000;fill-opacity:1;stroke:none;stroke-width:2;stroke-linecap:square;stroke-linejoin:miter;stroke-miterlimit:4;stroke-dasharray:none;stroke-opacity:1"
       id="path4304-4-0-6"
       cx="1385.9738"
       cy="2456.3474"
       r="0" />
    <circle
       style="fill:#000000;fill-opacity:1;stroke:none;stroke-width:2;stroke-linecap:square;stroke-linejoin:miter;stroke-miterlimit:4;stroke-dasharray:none;stroke-opacity:1"
       id="path4304-4-9-6"
       cx="2458.947"
       cy="2162.2476"
       r="0" />
    <circle
       style="fill:#000000;fill-opacity:1;stroke:none;stroke-width:2;stroke-linecap:square;stroke-linejoin:miter;stroke-miterlimit:4;stroke-dasharray:none;stroke-opacity:1"
       id="path4304-4-9-0"
       cx="2475.4346"
       cy="-339.29968"
       r="0" />
    <path
       inkscape:connector-curvature="0"
       id="path957"
       style="fill:#ffffff;fill-opacity:1;fill-rule:nonzero;stroke:none;stroke-width:1.2450068"
       d="m 94.378722,5048.7826 c -583.509852,0 -1073.167152,399.7841 -1210.978622,940.279 -0.9289,3.9342 -1.5659,7.943 -1.5659,12.1262 0,32.8682 26.6558,59.5115 59.5318,59.5115 h 503.81397 c 23.991,0 44.5089,-14.3299 53.9934,-34.7606 l 0.078,0.028 c 103.5209,-225.3339 330.88536,-381.9807 595.128202,-381.9807 361.504998,0 654.729098,293.2241 654.729098,654.8113 0,361.6011 -293.2241,654.8252 -654.729098,654.8252 -264.242842,0 -491.607302,-156.6467 -595.128202,-382.0415 l -0.078,0.1194 c -9.4845,-20.4793 -30.0024,-34.7718 -53.9934,-34.7718 H -1058.634 c -32.876,0 -59.5318,26.567 -59.5318,59.5213 0,4.076 0.637,7.9568 1.4832,11.8573 137.76837,540.5322 627.44447,940.4757 1211.061322,940.4757 690.273998,0 1249.966878,-559.7177 1249.966878,-1249.9869 0,-690.3437 -559.69288,-1250.0117 -1249.966878,-1250.0117 z M -203.2702,6298.7943 c 0,-164.3284 133.283022,-297.6065 297.648922,-297.6065 164.333398,0 297.573938,133.2781 297.573938,297.6065 0,164.3409 -133.24054,297.6539 -297.573938,297.6539 -164.3659,0 -297.648922,-133.313 -297.648922,-297.6539"
       sodipodi:nodetypes="ccsssccsssccsssasscccsssc" />
  </g>
</svg>
