<?xml version="1.0" encoding="UTF-8" standalone="no"?>
<!-- Created with Inkscape (http://www.inkscape.org/) -->

<svg
   xmlns:dc="http://purl.org/dc/elements/1.1/"
   xmlns:cc="http://creativecommons.org/ns#"
   xmlns:rdf="http://www.w3.org/1999/02/22-rdf-syntax-ns#"
   xmlns:svg="http://www.w3.org/2000/svg"
   xmlns="http://www.w3.org/2000/svg"
   xmlns:sodipodi="http://sodipodi.sourceforge.net/DTD/sodipodi-0.dtd"
   xmlns:inkscape="http://www.inkscape.org/namespaces/inkscape"
   width="5000"
   height="5000"
   viewBox="0 0 5000 4999.9999"
   id="svg2"
   version="1.1"
   inkscape:version="0.92.4 (5da689c313, 2019-01-14)"
   sodipodi:docname="circle-ubuntu.svg"
   inkscape:export-filename="/home/felicianotech/Projects/cloud-unpacked/graphics/logos/master/master.png"
   inkscape:export-xdpi="11.9"
   inkscape:export-ydpi="11.9">
  <defs
     id="defs4">
	
	
</defs>
  <sodipodi:namedview
     id="base"
     pagecolor="#000000"
     bordercolor="#666666"
     borderopacity="1.0"
     inkscape:pageopacity="0"
     inkscape:pageshadow="2"
     inkscape:zoom="0.1767767"
     inkscape:cx="4126.348"
     inkscape:cy="1184.2059"
     inkscape:document-units="px"
     inkscape:current-layer="layer1"
     showgrid="false"
     inkscape:window-width="3732"
     inkscape:window-height="2032"
     inkscape:window-x="108"
     inkscape:window-y="54"
     inkscape:window-maximized="1"
     fit-margin-top="0"
     fit-margin-left="0"
     fit-margin-right="0"
     fit-margin-bottom="0"
     showborder="true"
     units="px"
     inkscape:pagecheckerboard="true"
     showguides="true"
     inkscape:guide-bbox="true">
    <sodipodi:guide
       position="2500,2898"
       orientation="1,0"
       id="guide944"
       inkscape:locked="false" />
    <sodipodi:guide
       position="2703.9763,2500.3295"
       orientation="0,1"
       id="guide946"
       inkscape:locked="false" />
  </sodipodi:namedview>
  <metadata
     id="metadata7">
    <rdf:RDF>
      <cc:Work
         rdf:about="">
        <dc:format>image/svg+xml</dc:format>
        <dc:type
           rdf:resource="http://purl.org/dc/dcmitype/StillImage" />
        <dc:title></dc:title>
      </cc:Work>
    </rdf:RDF>
  </metadata>
  <g
     inkscape:label="Layer 1"
     inkscape:groupmode="layer"
     id="layer1"
     transform="translate(2386.9101,-3798.7827)">
    <circle
       style="fill:#e95420;fill-opacity:1"
       id="path864"
       cx="113.0899"
       cy="6298.7827"
       r="2500" />
    <circle
       style="fill:#000000;fill-opacity:1;stroke:none;stroke-width:2;stroke-linecap:square;stroke-linejoin:miter;stroke-miterlimit:4;stroke-dasharray:none;stroke-opacity:1"
       id="path4304-4-6"
       cx="2523.1167"
       cy="-317.93839"
       r="0" />
    <circle
       style="fill:#000000;fill-opacity:1;stroke:none;stroke-width:2;stroke-linecap:square;stroke-linejoin:miter;stroke-miterlimit:4;stroke-dasharray:none;stroke-opacity:1"
       id="path4304-4-2"
       cx="320.25952"
       cy="862.34735"
       r="0" />
    <circle
       style="fill:#000000;fill-opacity:1;stroke:none;stroke-width:2;stroke-linecap:square;stroke-linejoin:miter;stroke-miterlimit:4;stroke-dasharray:none;stroke-opacity:1"
       id="path4304-4-0"
       cx="2523.1167"
       cy="862.34735"
       r="0" />
    <circle
       style="fill:#000000;fill-opacity:1;stroke:none;stroke-width:2;stroke-linecap:square;stroke-linejoin:miter;stroke-miterlimit:4;stroke-dasharray:none;stroke-opacity:1"
       id="path4304-4-0-6"
       cx="1385.9738"
       cy="2456.3474"
       r="0" />
    <circle
       style="fill:#000000;fill-opacity:1;stroke:none;stroke-width:2;stroke-linecap:square;stroke-linejoin:miter;stroke-miterlimit:4;stroke-dasharray:none;stroke-opacity:1"
       id="path4304-4-9-6"
       cx="2458.947"
       cy="2162.2476"
       r="0" />
    <circle
       style="fill:#000000;fill-opacity:1;stroke:none;stroke-width:2;stroke-linecap:square;stroke-linejoin:miter;stroke-miterlimit:4;stroke-dasharray:none;stroke-opacity:1"
       id="path4304-4-9-0"
       cx="2475.4346"
       cy="-339.29968"
       r="0" />
    <path
       style="fill:#ffffff;stroke-width:12.79271126"
       inkscape:connector-curvature="0"
       d="m -830.0517,6298.727 c 0,128.7458 -104.3757,233.1472 -233.2111,233.1472 -128.6818,0 -233.0576,-104.3885 -233.0576,-233.1472 0,-128.6946 104.3758,-233.0704 233.0576,-233.0704 128.8354,0 233.2111,104.3758 233.2111,233.0704 z M 496.2199,7432.2379 c 64.3856,111.4118 206.8964,149.6236 318.3977,85.3275 111.4885,-64.3857 149.6876,-206.9733 85.3147,-318.4745 -64.373,-111.4886 -206.8966,-149.6108 -318.3851,-85.2379 -111.5013,64.3857 -149.7002,206.8965 -85.3273,318.3849 z M 899.9194,5398.4272 c 64.3729,-111.514 26.2506,-254.0632 -85.3146,-318.3722 -111.4244,-64.3729 -253.9993,-26.1739 -318.3978,85.289 -64.3729,111.4885 -26.1738,254.0249 85.3274,318.3978 111.5013,64.3729 254.0889,26.1739 318.385,-85.3146 z m -788.9521,235.5522 c 347.3605,0 632.3949,266.2674 662.1636,605.9139 l 337.3693,-5.3217 c -16.0164,-252.3618 -125.4837,-479.3301 -294.1683,-646.6844 -89.2932,34.4508 -192.9013,29.7687 -282.284,-21.8755 -89.4466,-51.6442 -145.3124,-139.0695 -160.088,-233.7868 -83.8434,-22.771 -172.0363,-34.9624 -262.9926,-34.9624 -159.5379,0 -310.3383,37.3035 -444.2524,103.6593 l 164.156,294.7824 c 85.0716,-39.5294 180.083,-61.7248 280.0964,-61.7248 z M -553.857,6298.727 c 0,-224.8575 111.7315,-423.7073 282.6805,-543.9461 l -173.2133,-289.5502 c -200.6409,133.9909 -350.0981,338.3801 -413.1534,578.0131 74.6198,60.0874 122.4262,152.1949 122.4262,255.4961 0,103.365 -47.8191,195.4726 -122.4262,255.5727 63.0553,239.6203 212.5125,444.0094 413.1534,578.0771 l 173.2133,-289.5503 C -442.1255,6722.5111 -553.857,6523.7381 -553.857,6298.727 Z m 664.8243,664.8756 c -100.0005,0 -195.012,-22.1825 -280.0964,-61.7888 l -164.156,294.7824 c 133.9141,66.407 284.7018,103.6721 444.2524,103.6721 90.9434,0 179.1492,-12.1019 262.9926,-34.9112 14.7628,-94.7812 70.6285,-182.2067 160.088,-233.7612 89.3827,-51.6442 192.9908,-56.3392 282.284,-21.8884 168.6974,-167.431 278.1519,-394.3993 294.1683,-646.761 l -337.3693,-5.2323 c -29.7815,339.5569 -314.8031,605.8884 -662.1636,605.8884 z"
       id="path928" />
  </g>
  <style
     id="style1118"
     type="text/css">
	.st0{fill:#2DBCAF;}
	.st1{fill:#5DC9E1;}
	.st2{fill:#FDDD00;}
	.st3{fill:#CE3262;}
	.st4{fill:#00ACD7;}
	.st5{fill:#FFFFFF;}
</style>
</svg>
